<svg width="150" height="150" viewBox="0 0 150 150" fill="none" xmlns="http://www.w3.org/2000/svg">
<g id="Group 2" filter="url(#filter0_d_101_5)">
<path id="Ellipse 1 (Stroke)" fill-rule="evenodd" clip-rule="evenodd" d="M74.7755 122.76C101.153 122.76 122.535 101.377 122.535 75C122.535 48.623 101.153 27.2402 74.7755 27.2402C48.3985 27.2402 27.0157 48.623 27.0157 75C27.0157 101.377 48.3985 122.76 74.7755 122.76ZM74.7755 124.3C102.003 124.3 124.076 102.228 124.076 75C124.076 47.7721 102.003 25.6996 74.7755 25.6996C47.5476 25.6996 25.4751 47.7721 25.4751 75C25.4751 102.228 47.5476 124.3 74.7755 124.3Z" fill="#6CE8DC"/>
<g id="Group 1">
<path id="Vector 1 (Stroke)" fill-rule="evenodd" clip-rule="evenodd" d="M61.1438 106.52C60.5935 107.046 59.9231 107.411 59.149 107.36C57.9261 107.278 56.867 106.618 55.9604 105.67C55.0548 104.723 54.2457 103.432 53.511 101.95C52.0412 98.9857 50.7895 95.0911 49.6658 91.206C49.2384 89.7286 48.8305 88.2563 48.4354 86.8303C47.782 84.4721 47.1636 82.2404 46.5506 80.3215C46.0604 78.7871 45.5862 77.4951 45.1183 76.5335C44.8844 76.053 44.6618 75.6753 44.4524 75.398C44.238 75.1142 44.0708 74.9804 43.9629 74.9265L44.6519 73.5485C45.0575 73.7513 45.3958 74.091 45.6817 74.4694C45.9725 74.8544 46.2449 75.3278 46.5036 75.8593C47.0206 76.9218 47.5214 78.2978 48.0181 79.8527C48.6387 81.7951 49.2728 84.0829 49.9336 86.4672C50.3272 87.8874 50.7303 89.3419 51.1457 90.7779C52.2687 94.6602 53.4885 98.4366 54.8913 101.266C55.5929 102.681 56.3205 103.817 57.0739 104.605C57.8263 105.392 58.5485 105.775 59.2515 105.822C59.4402 105.835 59.7087 105.76 60.0791 105.406C60.4529 105.049 60.8584 104.471 61.2863 103.655C62.1399 102.027 62.9893 99.6341 63.8532 96.6867C65.0762 92.5144 66.2975 87.3426 67.5929 81.8576C68.1263 79.5986 68.6723 77.2865 69.2362 74.9692C71.1613 67.0574 73.2923 59.0949 75.8237 53.1539C77.088 50.1867 78.4743 47.6694 80.0221 45.9087C81.5705 44.1472 83.3703 43.0478 85.4363 43.1693C86.7556 43.2469 87.9332 43.8764 88.9772 44.8147C90.018 45.7501 90.9667 47.0277 91.8452 48.4931C93.6004 51.4211 95.1625 55.2517 96.6357 58.9986C96.817 59.4598 96.9969 59.9196 97.1757 60.3765C98.4622 63.6641 99.6899 66.8013 100.951 69.2193C101.669 70.596 102.372 71.6889 103.069 72.4284C103.771 73.1732 104.376 73.4672 104.906 73.4672V75.0078C103.766 75.0078 102.783 74.371 101.948 73.4849C101.108 72.5935 100.327 71.3554 99.5848 69.9317C98.2823 67.4339 97.0206 64.2091 95.7401 60.9358C95.5611 60.4783 95.3817 60.0199 95.2018 59.5623C93.7221 55.7986 92.203 52.0865 90.5238 49.2852C89.6851 47.8861 88.8284 46.7524 87.9474 45.9606C87.0696 45.1717 86.2091 44.7581 85.3458 44.7073C83.9454 44.6249 82.5676 45.3464 81.1792 46.9259C79.7901 48.5061 78.4803 50.8495 77.2411 53.7578C74.7654 59.568 72.6597 67.4159 70.7332 75.3334C70.1766 77.621 69.6347 79.9152 69.1035 82.1648C67.8035 87.6694 66.5668 92.9061 65.3317 97.12C64.4623 100.086 63.5786 102.601 62.6508 104.37C62.188 105.253 61.6908 105.997 61.1438 106.52Z" fill="#6CE8DC"/>
<path id="Vector 3 (Stroke)" fill-rule="evenodd" clip-rule="evenodd" d="M62.1942 87.4574C61.0821 88.3568 59.881 88.9518 58.6354 88.8688C54.3829 88.5853 51.6302 85.3242 49.5101 82.177C49.0023 81.4231 48.5206 80.6594 48.06 79.9292C48.0333 79.8867 48.0065 79.8443 47.9799 79.8021C47.4923 79.0291 47.0294 78.2988 46.5708 77.6365C45.6341 76.2839 44.7984 75.3443 43.9629 74.9266L44.6519 73.5486C45.8706 74.1579 46.8964 75.4006 47.8374 76.7595C48.3177 77.453 48.7976 78.2108 49.2829 78.9801C49.3086 79.0208 49.3343 79.0615 49.36 79.1023C49.8232 79.8367 50.2935 80.5823 50.7879 81.3162C52.9045 84.4583 55.2872 87.1015 58.7379 87.3316C59.4181 87.3769 60.2391 87.0572 61.2254 86.2595C62.2012 85.4702 63.2436 84.2896 64.3433 82.8101C66.4133 80.0253 68.5884 76.3189 70.825 72.5078C70.9652 72.2689 71.1056 72.0296 71.2462 71.7901C73.6154 67.7561 76.0491 63.6644 78.4464 60.6148C79.6454 59.0895 80.8618 57.7899 82.0859 56.8831C83.3062 55.9791 84.6068 55.4123 85.9498 55.4913C88.4023 55.6356 90.4334 56.9701 92.169 58.7478C93.9011 60.5218 95.4162 62.8177 96.8251 65.0274C96.9882 65.2833 97.1498 65.5378 97.3101 65.7903C98.5544 67.7501 99.7216 69.5884 100.933 70.9991C102.312 72.6059 103.591 73.4673 104.906 73.4673V75.0079C102.883 75.0079 101.209 73.6863 99.7636 72.0026C98.4747 70.5011 97.2426 68.5595 96.01 66.6172C95.8487 66.363 95.6874 66.1089 95.526 65.8556C94.1103 63.6352 92.6726 61.4689 91.0666 59.8241C89.4642 58.1828 87.772 57.1418 85.8594 57.0293C85.0198 56.9799 84.0736 57.3279 83.003 58.121C81.9363 58.9113 80.8177 60.0911 79.6576 61.5669C77.3367 64.5194 74.9558 68.516 72.5747 72.5703C72.4289 72.8187 72.283 73.0673 72.1372 73.3158C69.9176 77.0983 67.7021 80.874 65.5798 83.7292C64.4488 85.2507 63.3167 86.5495 62.1942 87.4574Z" fill="#6CE8DC"/>
<path id="Vector 2 (Stroke)" fill-rule="evenodd" clip-rule="evenodd" d="M62.2844 94.8985C61.2321 96.1909 60.0075 97.1769 58.6354 97.0855C56.3648 96.9341 54.5781 95.3886 53.1421 93.3884C51.6972 91.3759 50.4976 88.7519 49.4356 86.1456C48.996 85.0667 48.5834 84.0004 48.1854 82.9722C47.6047 81.4714 47.0553 80.0518 46.4994 78.7929C46.0364 77.7442 45.5887 76.8559 45.1443 76.1767C44.6894 75.4816 44.2919 75.091 43.9629 74.9265L44.6519 73.5485C45.35 73.8975 45.9314 74.566 46.4334 75.3331C46.9458 76.1162 47.433 77.0932 47.9088 78.1706C48.4735 79.4495 49.0507 80.9398 49.6462 82.4773C50.0429 83.5014 50.4477 84.5466 50.8623 85.5642C51.9187 88.1568 53.0622 90.6354 54.3936 92.4899C55.7339 94.3568 57.157 95.4428 58.7379 95.5482C59.2917 95.5852 60.0726 95.175 61.0897 93.9257C62.0684 92.7237 63.1045 90.9429 64.1874 88.7322C66.2425 84.5367 68.3884 78.958 70.5835 73.2513C70.6986 72.9521 70.8138 72.6526 70.9291 72.3528C73.2353 66.3607 75.5927 60.3018 77.9265 55.7408C79.0922 53.4628 80.2729 51.516 81.4642 50.1285C82.6299 48.7709 83.9439 47.7867 85.3911 47.7867C86.4812 47.7867 87.48 48.3107 88.3734 49.0753C89.2696 49.8423 90.1291 50.9098 90.9569 52.1394C92.6056 54.5883 94.2282 57.834 95.8204 61.0188L95.8374 61.0528C97.4495 64.2772 99.0308 67.4372 100.618 69.7947C101.411 70.9727 102.18 71.9114 102.925 72.5488C103.673 73.1886 104.327 73.4672 104.906 73.4672V75.0078C103.816 75.0078 102.817 74.4839 101.923 73.7193C101.027 72.9523 100.168 71.8847 99.34 70.6551C97.6913 68.2063 96.0686 64.9606 94.4764 61.7758L94.4594 61.7417C92.8474 58.5173 91.2661 55.3573 89.6789 52.9998C88.8858 51.8219 88.1164 50.8832 87.3717 50.2458C86.6241 49.606 85.9699 49.3274 85.3911 49.3274C84.6518 49.3274 83.7324 49.8518 82.6331 51.1321C81.5595 52.3825 80.444 54.2031 79.2981 56.4426C77.0086 60.9169 74.6808 66.8942 72.367 72.9062C72.2478 73.2159 72.1287 73.5256 72.0096 73.8352C69.8257 79.5129 67.6572 85.1508 65.571 89.4099C64.4725 91.6526 63.3752 93.5589 62.2844 94.8985Z" fill="#6CE8DC"/>
</g>
</g>
<defs>
<filter id="filter0_d_101_5" x="0.475098" y="0.699585" width="148.601" height="148.601" filterUnits="userSpaceOnUse" color-interpolation-filters="sRGB">
<feFlood flood-opacity="0" result="BackgroundImageFix"/>
<feColorMatrix in="SourceAlpha" type="matrix" values="0 0 0 0 0 0 0 0 0 0 0 0 0 0 0 0 0 0 127 0" result="hardAlpha"/>
<feOffset/>
<feGaussianBlur stdDeviation="12.5"/>
<feComposite in2="hardAlpha" operator="out"/>
<feColorMatrix type="matrix" values="0 0 0 0 0.423529 0 0 0 0 0.909804 0 0 0 0 0.862745 0 0 0 0.6 0"/>
<feBlend mode="normal" in2="BackgroundImageFix" result="effect1_dropShadow_101_5"/>
<feBlend mode="normal" in="SourceGraphic" in2="effect1_dropShadow_101_5" result="shape"/>
</filter>
</defs>
</svg>
