<svg width="155" height="104" viewBox="0 0 155 104" fill="none" xmlns="http://www.w3.org/2000/svg">
<g id="STAY TUNED" filter="url(#filter0_d_101_4)">
<mask id="path-1-outside-1_101_4" maskUnits="userSpaceOnUse" x="0.866211" y="0.699585" width="153" height="102" fill="black">
<rect fill="white" x="0.866211" y="0.699585" width="153" height="102"/>
<path d="M15.1541 40.4581C9.47653 40.4581 6.63774 37.616 6.63774 31.932V29.2523L11.2609 27.0599H11.5042V31.932C11.5042 34.6928 12.7209 36.0732 15.1541 36.0732H22.6972C25.1304 36.0732 26.347 34.6928 26.347 31.932V26.8163C26.347 24.0555 25.1304 22.675 22.6972 22.675H16.1274C11.2609 22.675 8.82767 20.239 8.82767 15.3669V10.9821C8.82767 6.11003 11.2609 3.674 16.1274 3.674H21.7239C26.5904 3.674 29.0236 6.11003 29.0236 10.9821V12.2732L24.4004 14.4656H24.1571V10.9821C24.1571 9.03327 23.346 8.05885 21.7239 8.05885H16.1274C14.5052 8.05885 13.6942 9.03327 13.6942 10.9821V15.3669C13.6942 17.3158 14.5052 18.2902 16.1274 18.2902H22.6972C28.3748 18.2902 31.2135 21.1322 31.2135 26.8163V31.932C31.2135 37.616 28.3748 40.4581 22.6972 40.4581H15.1541Z"/>
<path d="M41.9928 41.4325V8.10757H31.5785V7.86397L33.5495 3.674H57.2736V3.9176L55.3027 8.10757H46.8593V39.2401L42.2362 41.4325H41.9928Z"/>
<path d="M58.6119 41.4325V12.2001C58.6119 6.51603 61.4507 3.674 67.1283 3.674H74.6713C80.3489 3.674 83.1877 6.51603 83.1877 12.2001V39.2401L78.5645 41.4325H78.3212V24.2828H63.4784V39.2401L58.8552 41.4325H58.6119ZM63.4784 19.8492H78.3212V12.2001C78.3212 9.43927 77.1046 8.05885 74.6713 8.05885H67.1283C64.695 8.05885 63.4784 9.43927 63.4784 12.2001V19.8492Z"/>
<path d="M100.342 41.4325V28.7164H99.0038C93.3262 28.7164 90.4874 25.8744 90.4874 20.1903V4.89201L95.1106 2.69958H95.3539V20.1903C95.3539 22.9511 96.5706 24.3315 99.0038 24.3315H106.547C108.98 24.3315 110.197 22.9511 110.197 20.1903V4.89201L114.82 2.69958H115.063V20.1903C115.063 25.8744 112.224 28.7164 106.547 28.7164H105.209V39.2401L100.585 41.4325H100.342Z"/>
<path d="M13.2805 101.3V67.9755H2.86621V67.7319L4.83714 63.5419H28.5613V63.7855L26.5904 67.9755H18.147V99.108L13.5238 101.3H13.2805Z"/>
<path d="M39.6326 100.326C33.955 100.326 31.1162 97.4839 31.1162 91.7999V64.7599L35.7394 62.5675H35.9827V91.7999C35.9827 94.5607 37.1993 95.9411 39.6326 95.9411H47.1756C49.6089 95.9411 50.8255 94.5607 50.8255 91.7999V64.7599L55.4487 62.5675H55.692V91.7999C55.692 97.4839 52.8532 100.326 47.1756 100.326H39.6326Z"/>
<path d="M65.425 101.3V72.068C65.425 66.3839 68.2638 63.5419 73.9414 63.5419H81.4844C87.162 63.5419 90.0008 66.3839 90.0008 72.068V99.108L85.3776 101.3H85.1343V72.068C85.1343 69.3072 83.9177 67.9268 81.4844 67.9268H73.9414C71.5081 67.9268 70.2915 69.3072 70.2915 72.068V99.108L65.6683 101.3H65.425Z"/>
<path d="M99.7338 100.326V64.7599L102.313 63.5419H117.74V63.7855L115.769 67.9755H104.6V79.7172H117.74V79.9608L115.769 84.1507H104.6V95.8924H121.803V96.136L119.832 100.326H99.7338Z"/>
<path d="M132.777 95.9411H143.484C145.917 95.9411 147.133 94.5607 147.133 91.7999V72.068C147.133 69.3072 145.917 67.9268 143.484 67.9268H132.777V95.9411ZM127.911 100.326V64.7599L130.49 63.5419H143.484C149.161 63.5419 152 66.3839 152 72.068V91.7999C152 97.4839 149.161 100.326 143.484 100.326H127.911Z"/>
</mask>
<path d="M15.1541 40.4581C9.47653 40.4581 6.63774 37.616 6.63774 31.932V29.2523L11.2609 27.0599H11.5042V31.932C11.5042 34.6928 12.7209 36.0732 15.1541 36.0732H22.6972C25.1304 36.0732 26.347 34.6928 26.347 31.932V26.8163C26.347 24.0555 25.1304 22.675 22.6972 22.675H16.1274C11.2609 22.675 8.82767 20.239 8.82767 15.3669V10.9821C8.82767 6.11003 11.2609 3.674 16.1274 3.674H21.7239C26.5904 3.674 29.0236 6.11003 29.0236 10.9821V12.2732L24.4004 14.4656H24.1571V10.9821C24.1571 9.03327 23.346 8.05885 21.7239 8.05885H16.1274C14.5052 8.05885 13.6942 9.03327 13.6942 10.9821V15.3669C13.6942 17.3158 14.5052 18.2902 16.1274 18.2902H22.6972C28.3748 18.2902 31.2135 21.1322 31.2135 26.8163V31.932C31.2135 37.616 28.3748 40.4581 22.6972 40.4581H15.1541Z" fill="#6CE8DC"/>
<path d="M41.9928 41.4325V8.10757H31.5785V7.86397L33.5495 3.674H57.2736V3.9176L55.3027 8.10757H46.8593V39.2401L42.2362 41.4325H41.9928Z" fill="#6CE8DC"/>
<path d="M58.6119 41.4325V12.2001C58.6119 6.51603 61.4507 3.674 67.1283 3.674H74.6713C80.3489 3.674 83.1877 6.51603 83.1877 12.2001V39.2401L78.5645 41.4325H78.3212V24.2828H63.4784V39.2401L58.8552 41.4325H58.6119ZM63.4784 19.8492H78.3212V12.2001C78.3212 9.43927 77.1046 8.05885 74.6713 8.05885H67.1283C64.695 8.05885 63.4784 9.43927 63.4784 12.2001V19.8492Z" fill="#6CE8DC"/>
<path d="M100.342 41.4325V28.7164H99.0038C93.3262 28.7164 90.4874 25.8744 90.4874 20.1903V4.89201L95.1106 2.69958H95.3539V20.1903C95.3539 22.9511 96.5706 24.3315 99.0038 24.3315H106.547C108.98 24.3315 110.197 22.9511 110.197 20.1903V4.89201L114.82 2.69958H115.063V20.1903C115.063 25.8744 112.224 28.7164 106.547 28.7164H105.209V39.2401L100.585 41.4325H100.342Z" fill="#6CE8DC"/>
<path d="M13.2805 101.3V67.9755H2.86621V67.7319L4.83714 63.5419H28.5613V63.7855L26.5904 67.9755H18.147V99.108L13.5238 101.3H13.2805Z" fill="#6CE8DC"/>
<path d="M39.6326 100.326C33.955 100.326 31.1162 97.4839 31.1162 91.7999V64.7599L35.7394 62.5675H35.9827V91.7999C35.9827 94.5607 37.1993 95.9411 39.6326 95.9411H47.1756C49.6089 95.9411 50.8255 94.5607 50.8255 91.7999V64.7599L55.4487 62.5675H55.692V91.7999C55.692 97.4839 52.8532 100.326 47.1756 100.326H39.6326Z" fill="#6CE8DC"/>
<path d="M65.425 101.3V72.068C65.425 66.3839 68.2638 63.5419 73.9414 63.5419H81.4844C87.162 63.5419 90.0008 66.3839 90.0008 72.068V99.108L85.3776 101.3H85.1343V72.068C85.1343 69.3072 83.9177 67.9268 81.4844 67.9268H73.9414C71.5081 67.9268 70.2915 69.3072 70.2915 72.068V99.108L65.6683 101.3H65.425Z" fill="#6CE8DC"/>
<path d="M99.7338 100.326V64.7599L102.313 63.5419H117.74V63.7855L115.769 67.9755H104.6V79.7172H117.74V79.9608L115.769 84.1507H104.6V95.8924H121.803V96.136L119.832 100.326H99.7338Z" fill="#6CE8DC"/>
<path d="M132.777 95.9411H143.484C145.917 95.9411 147.133 94.5607 147.133 91.7999V72.068C147.133 69.3072 145.917 67.9268 143.484 67.9268H132.777V95.9411ZM127.911 100.326V64.7599L130.49 63.5419H143.484C149.161 63.5419 152 66.3839 152 72.068V91.7999C152 97.4839 149.161 100.326 143.484 100.326H127.911Z" fill="#6CE8DC"/>
<path d="M15.1541 40.4581C9.47653 40.4581 6.63774 37.616 6.63774 31.932V29.2523L11.2609 27.0599H11.5042V31.932C11.5042 34.6928 12.7209 36.0732 15.1541 36.0732H22.6972C25.1304 36.0732 26.347 34.6928 26.347 31.932V26.8163C26.347 24.0555 25.1304 22.675 22.6972 22.675H16.1274C11.2609 22.675 8.82767 20.239 8.82767 15.3669V10.9821C8.82767 6.11003 11.2609 3.674 16.1274 3.674H21.7239C26.5904 3.674 29.0236 6.11003 29.0236 10.9821V12.2732L24.4004 14.4656H24.1571V10.9821C24.1571 9.03327 23.346 8.05885 21.7239 8.05885H16.1274C14.5052 8.05885 13.6942 9.03327 13.6942 10.9821V15.3669C13.6942 17.3158 14.5052 18.2902 16.1274 18.2902H22.6972C28.3748 18.2902 31.2135 21.1322 31.2135 26.8163V31.932C31.2135 37.616 28.3748 40.4581 22.6972 40.4581H15.1541Z" stroke="#6CE8DC" stroke-width="2.46502" mask="url(#path-1-outside-1_101_4)"/>
<path d="M41.9928 41.4325V8.10757H31.5785V7.86397L33.5495 3.674H57.2736V3.9176L55.3027 8.10757H46.8593V39.2401L42.2362 41.4325H41.9928Z" stroke="#6CE8DC" stroke-width="2.46502" mask="url(#path-1-outside-1_101_4)"/>
<path d="M58.6119 41.4325V12.2001C58.6119 6.51603 61.4507 3.674 67.1283 3.674H74.6713C80.3489 3.674 83.1877 6.51603 83.1877 12.2001V39.2401L78.5645 41.4325H78.3212V24.2828H63.4784V39.2401L58.8552 41.4325H58.6119ZM63.4784 19.8492H78.3212V12.2001C78.3212 9.43927 77.1046 8.05885 74.6713 8.05885H67.1283C64.695 8.05885 63.4784 9.43927 63.4784 12.2001V19.8492Z" stroke="#6CE8DC" stroke-width="2.46502" mask="url(#path-1-outside-1_101_4)"/>
<path d="M100.342 41.4325V28.7164H99.0038C93.3262 28.7164 90.4874 25.8744 90.4874 20.1903V4.89201L95.1106 2.69958H95.3539V20.1903C95.3539 22.9511 96.5706 24.3315 99.0038 24.3315H106.547C108.98 24.3315 110.197 22.9511 110.197 20.1903V4.89201L114.82 2.69958H115.063V20.1903C115.063 25.8744 112.224 28.7164 106.547 28.7164H105.209V39.2401L100.585 41.4325H100.342Z" stroke="#6CE8DC" stroke-width="2.46502" mask="url(#path-1-outside-1_101_4)"/>
<path d="M13.2805 101.3V67.9755H2.86621V67.7319L4.83714 63.5419H28.5613V63.7855L26.5904 67.9755H18.147V99.108L13.5238 101.3H13.2805Z" stroke="#6CE8DC" stroke-width="2.46502" mask="url(#path-1-outside-1_101_4)"/>
<path d="M39.6326 100.326C33.955 100.326 31.1162 97.4839 31.1162 91.7999V64.7599L35.7394 62.5675H35.9827V91.7999C35.9827 94.5607 37.1993 95.9411 39.6326 95.9411H47.1756C49.6089 95.9411 50.8255 94.5607 50.8255 91.7999V64.7599L55.4487 62.5675H55.692V91.7999C55.692 97.4839 52.8532 100.326 47.1756 100.326H39.6326Z" stroke="#6CE8DC" stroke-width="2.46502" mask="url(#path-1-outside-1_101_4)"/>
<path d="M65.425 101.3V72.068C65.425 66.3839 68.2638 63.5419 73.9414 63.5419H81.4844C87.162 63.5419 90.0008 66.3839 90.0008 72.068V99.108L85.3776 101.3H85.1343V72.068C85.1343 69.3072 83.9177 67.9268 81.4844 67.9268H73.9414C71.5081 67.9268 70.2915 69.3072 70.2915 72.068V99.108L65.6683 101.3H65.425Z" stroke="#6CE8DC" stroke-width="2.46502" mask="url(#path-1-outside-1_101_4)"/>
<path d="M99.7338 100.326V64.7599L102.313 63.5419H117.74V63.7855L115.769 67.9755H104.6V79.7172H117.74V79.9608L115.769 84.1507H104.6V95.8924H121.803V96.136L119.832 100.326H99.7338Z" stroke="#6CE8DC" stroke-width="2.46502" mask="url(#path-1-outside-1_101_4)"/>
<path d="M132.777 95.9411H143.484C145.917 95.9411 147.133 94.5607 147.133 91.7999V72.068C147.133 69.3072 145.917 67.9268 143.484 67.9268H132.777V95.9411ZM127.911 100.326V64.7599L130.49 63.5419H143.484C149.161 63.5419 152 66.3839 152 72.068V91.7999C152 97.4839 149.161 100.326 143.484 100.326H127.911Z" stroke="#6CE8DC" stroke-width="2.46502" mask="url(#path-1-outside-1_101_4)"/>
</g>
<defs>
<filter id="filter0_d_101_4" x="0.633789" y="0.467041" width="153.599" height="103.066" filterUnits="userSpaceOnUse" color-interpolation-filters="sRGB">
<feFlood flood-opacity="0" result="BackgroundImageFix"/>
<feColorMatrix in="SourceAlpha" type="matrix" values="0 0 0 0 0 0 0 0 0 0 0 0 0 0 0 0 0 0 127 0" result="hardAlpha"/>
<feOffset/>
<feGaussianBlur stdDeviation="0.5"/>
<feComposite in2="hardAlpha" operator="out"/>
<feColorMatrix type="matrix" values="0 0 0 0 0.423529 0 0 0 0 0.909804 0 0 0 0 0.862745 0 0 0 0.6 0"/>
<feBlend mode="normal" in2="BackgroundImageFix" result="effect1_dropShadow_101_4"/>
<feBlend mode="normal" in="SourceGraphic" in2="effect1_dropShadow_101_4" result="shape"/>
</filter>
</defs>
</svg>
